<svg id="Layer_1" data-name="Layer 1" xmlns="http://www.w3.org/2000/svg" viewBox="0 0 929 597"><defs><style>.cls-1,.cls-21,.cls-4{fill:none}.cls-1,.cls-21{stroke:#fff}.cls-1{stroke-linecap:round;stroke-linejoin:round}.cls-3{fill:#fad63f}.cls-21{stroke-miterlimit:10}.cls-4{stroke:#fad63f;stroke-linejoin:bevel;stroke-width:0}.cls-5{font-size:16px;fill:#fff;font-family:Roboto}.cls-6{letter-spacing:-.01em}.cls-12{letter-spacing:-.04em}.cls-13,.cls-17{letter-spacing:-.01em}</style></defs><path class="cls-1" d="M479.01 438.46l1.78-5.22-.56-6.22-1.33-4.77-5.78-12.88-5.1-6.67-3.67-5.88-7.66-7.99-5.44-4.67-2.11-3.44-1.33-6.22 1.33-4.66.78-12.21-3.33-4v-5.67l-2.11-7.21-5-7.11-5.55-4.55-6.44-.56-17.32 1-14.44 4.11-7.77 4 .11 8.55 4.11 11.77 9.1 11.77 20.99 23.54 9.33 8.88 8.21 9.22 22.43 21.2 16.77 5.89M550.52 486.09l17.32-11.99 5.55-5.33 3.44-9.21-.22-12.66-8.99-23.54-14.33-15.66-12.21-6.77-14.55 7.33-16.76 11.66 3.11 9.21 5.21 12.88 4.33 6.55 5.45 10.33 17.87 22.43 4.78 4.77M477.79 53.94l-1.56 5.78-3.11 6.99-3.55 10.88-3 16.99v7.11l16.1 8.1 9.11 3.11 5.77-3 3.89-12.88-.33-17.21.55-6.77-.55-6.88-1.34-5.22-14.54-5.56-7.44-1.44"/><path class="cls-3" d="M406.75 20.5l-4.86.38 1.38 7.96 5.52-.39-2.04-7.95z"/><path class="cls-4" d="M406.95 20.63l-4.89.33 1.33 7.89 5.44-.34-1.88-7.88z"/><path class="cls-3" d="M443.02 323.21l6.69.09-.18-3.66-6.24-.11-.27 3.68z"/><path class="cls-4" d="M443.14 323.2l6.78.11-.22-3.66h-6.33l-.23 3.55z"/><path class="cls-3" d="M548.16 434.88l2.61 4.43 6.59-2.81-2.14-4.64-7.06 3.02z"/><path class="cls-4" d="M548.41 434.91l2.44 4.55 6.55-3-2-4.66-6.99 3.11z"/><path class="cls-3" d="M610.4 509.85l-3.04-4.59-7.57 4.2 2.37 5.25 8.24-4.86z"/><path class="cls-4" d="M610.59 509.86l-3.11-4.67-7.66 4.33 2.44 5.22 8.33-4.88z"/><path class="cls-3" d="M449.4 397.81l1.08 2.48 2.76-1.3-.88-1.54-1-.47-1.96.83z"/><path class="cls-4" d="M449.58 397.93l1.11 2.44 2.78-1.33-1-1.55-.89-.56-2 1z"/><path class="cls-3" d="M433.01 358.69l-3.15 1.41 1.88 3.9 3.89-1.85-2.62-3.46z"/><path class="cls-4" d="M433.15 358.74l-3.11 1.33 1.89 3.88 3.77-1.88-2.55-3.33z"/><path class="cls-3" d="M498.98 189.14l-1.49 9.34 6.63.22.83-8.4-5.97-1.16z"/><path class="cls-4" d="M499.22 189.18l-1.45 9.33 6.33.22 1-8.33-5.88-1.22z"/><path class="cls-3" d="M496.63 68.28l-4.69-.72-.56 3.42 4.9.98.35-3.68z"/><path class="cls-4" d="M496.77 68.27l-4.66-.56-.55 3.33 4.88.89.33-3.66z"/><path class="cls-3" d="M477.03 98.46l-1.21 6.02 4.47 1.38 1.27-6.74-4.53-.66z"/><path class="cls-4" d="M477.23 98.36l-1.22 6.21 4.44 1.23 1.22-6.67-4.44-.77z"/><path class="cls-3" d="M480.54 54.7l-.83 3.43 3.9.65.67-3.57-3.74-.51z"/><path class="cls-4" d="M480.56 54.61l-.66 3.55 3.88.56.56-3.56-3.78-.55z"/><path class="cls-3" d="M497.75 458.43l2.46-.94-.47-1.35-3.67-3.98-1.83-.08-1.13 1.05.55 1.93 4.09 3.37z"/><path class="cls-4" d="M497.88 458.44l2.45-.88-.33-1.45-3.78-3.99-1.78-.12-1.22 1.12.67 1.99 3.99 3.33z"/><path class="cls-3" d="M408.76 356.88l3.87-3.03-3.37-4.15-3.59 2.16 3.09 5.02z"/><path class="cls-4" d="M408.83 356.96l3.89-3-3.33-4.22-3.55 2.22 2.99 5z"/><path class="cls-3" d="M432.93 404.17l-4.73-5.19-2.43 2.79 5.05 3.59 2.11-1.19z"/><path class="cls-4" d="M432.93 404.26l-4.55-5.22-2.45 2.78 5.11 3.44 1.89-1z"/><path class="cls-3" d="M432.99 366.86l1.18 4.28 5.2-1.66-2.1-4.81-4.28 2.19z"/><path class="cls-4" d="M433.15 366.95l1.11 4.22 5.22-1.67-2.11-4.88-4.22 2.33z"/><path class="cls-3" d="M569.79 487.94l-2.37 1.79.27 2.21 3.13-2.18-1.03-1.82z"/><path class="cls-4" d="M570.06 487.98l-2.44 1.67.22 2.22 3.11-2-.89-1.89z"/><path class="cls-3" d="M525.61 502.58l-2.79 4.64 4.22 1.49 4.87.94-1.03-8.54-5.27 1.47z"/><path class="cls-4" d="M525.75 502.64l-2.77 4.66 4.22 1.45 4.77.88-.88-8.55-5.34 1.56z"/><path class="cls-3" d="M455.92 256.98l-6.96.5-4.81 14.03 12.66-.88-.89-13.65z"/><path class="cls-4" d="M455.91 257.03l-6.77.55-4.77 13.99 12.54-.89-1-13.65z"/><path class="cls-3" d="M477.91 412.99l-1.22-4.56-2.06 1.01 2.39 3.98.89-.43z"/><path class="cls-4" d="M478.12 413.03l-1.33-4.66-2 1 2.44 4.11.89-.45z"/><path class="cls-3" d="M456.48 395.18l-.83-1.52-3.4 1.19.72 1.96 3.51-1.63z"/><path class="cls-4" d="M456.47 395.27l-.56-1.67-3.44 1.33.56 1.89 3.44-1.55z"/><path class="cls-3" d="M541.85 455.56l-2.01-3.48-3.44.98 2.34 4.21 3.11-1.71z"/><path class="cls-4" d="M542.08 455.56l-2.11-3.56-3.56 1.12 2.45 4.1 3.22-1.66z"/><path class="cls-3" d="M527.32 158.15l-5.55-1.66-3.71 7.35 8.29 4.73.97-10.42z"/><path class="cls-4" d="M527.31 158.09l-5.22-1.66-3.77 7.55 8.21 4.55.78-10.44z"/><path class="cls-3" d="M528.36 440.54l-2.43-5.36-4.92 2.21 3.76 4.98 3.59-1.83z"/><path class="cls-4" d="M528.42 440.57l-2.33-5.44-5 2.22 3.89 5 3.44-1.78z"/><path class="cls-3" d="M546.5 456.11l-1.1 2.93 1.71 2.1 3.87-.39.28-3.64-1.38-1.55-3.38.55z"/><path class="cls-4" d="M546.74 456.11l-1.11 2.89 1.67 2.11 3.77-.33.33-3.56-1.33-1.66-3.33.55z"/><path class="cls-1" d="M395.73 333.64l14.44-4.11 17.32-1 6.44.56 5.55 4.55 5 7.11 2.11 7.21v5.67l3.33 4-.78 12.21-1.33 4.66 1.33 6.22 2.11 3.44 5.44 4.67 7.66 7.99 3.67 5.88 5.1 6.67 1.96 4.35-2.4-15.79-3.66-13.43-1.56-14.22-3-14.1-2-14.32-.77-10.33v-9.1l1.11-15.88-.89-17.21 2-12.33-1.67-6.11-4.99-.44-13.66 1.11-5.78 17.21-3.77 4.55-4.66 4.45-8.44 4.22-6.11 2.33-8.44 5.33-12.32 18.54-6 7.88.37 1.31 7.29-3.75z"/><text class="cls-5" transform="translate(466.68 45.37)">ÓBU<tspan class="cls-6" x="31.91" y="0">D</tspan><tspan x="42.58" y="0">A</tspan></text><text class="cls-5" transform="translate(275.68 49.37)">FEHÉREGY<tspan x="77.7" y="0" letter-spacing=".01em">H</tspan><tspan x="89.1" y="0">Á</tspan><tspan x="99.22" y="0" letter-spacing=".01em">Z</tspan><tspan x="108.89" y="0">A(?)</tspan></text><text class="cls-5" transform="translate(605.68 533.37)">SZE<tspan x="28.18" y="0" letter-spacing="-.01em">N</tspan><tspan x="39.22" y="0">TERZSÉBET</tspan><tspan x="124.55" y="0" letter-spacing="-.03em">F</tspan><tspan x="132.91" y="0">A</tspan><tspan x="143.03" y="0" letter-spacing="-.09em">L</tspan><tspan class="cls-12" x="150.46" y="0">V</tspan><tspan x="159.99" y="0">A</tspan></text><text class="cls-5" transform="translate(323.45 492.37)">S<tspan class="cls-13" x="9.78" y="0">z</tspan><tspan x="17.7" y="0">ent Gellé</tspan><tspan x="80.19" y="0" letter-spacing=".01em">r</tspan><tspan x="85.92" y="0">t püspök</tspan><tspan x="93.92" y="19.2">(1046)?</tspan></text><text class="cls-5" transform="translate(233.24 389.37)"><tspan letter-spacing="-.01em">K</tspan><tspan class="cls-13" x="9.96" y="0">öz</tspan><tspan x="26.85" y="0">épkori zsidó temető</tspan><tspan x="-.48" y="19.2" letter-spacing="-.02em">W</tspan><tspan x="13.05" y="19.2">erbőczy Ist</tspan><tspan class="cls-17" x="91.95" y="19.2">v</tspan><tspan x="99.88" y="19.2">án (1541)</tspan></text><text class="cls-5" transform="translate(512.68 373.37)">III. András (1301)</text><text class="cls-5" transform="translate(576.68 168.37)">Árpádházi S<tspan class="cls-13" x="86.43" y="0">z</tspan><tspan x="94.35" y="0">ent Ma</tspan><tspan x="143.88" y="0" letter-spacing="-.01em">r</tspan><tspan x="149.34" y="0">git (1270)</tspan><tspan x="0" y="19.2" letter-spacing="-.11em">V</tspan><tspan x="8.36" y="19.2">. Ist</tspan><tspan class="cls-17" x="34.9" y="19.2">v</tspan><tspan x="42.83" y="19.2">án (1272)</tspan></text><text class="cls-5" transform="translate(583.68 72.37)">Bonfini (1502)?</text><text class="cls-5" transform="translate(330.16 136.37)">Lokietek Erzsébet<tspan x="79.82" y="19.2">(1380)</tspan></text><text class="cls-5" transform="translate(259.36 440.37)"><tspan letter-spacing="-.01em">P</tspan><tspan x="10.07" y="0">odjebrád Katalin (1464)</tspan><tspan x="35.29" y="19.2">Anna de </tspan><tspan class="cls-6" x="97.81" y="19.2">F</tspan><tspan x="106.48" y="19.2">oix (1506)</tspan></text><text class="cls-5" transform="translate(568.68 411.37)">PEST</text><text class="cls-5" transform="translate(344.68 361.37)">BU<tspan class="cls-6" x="21" y="0">D</tspan><tspan x="31.67" y="0">A</tspan></text><text class="cls-5" transform="translate(346.68 291.37)">VÍZI<tspan class="cls-12" x="28.73" y="0">V</tspan><tspan x="38.27" y="0">ÁROS</tspan></text><path class="cls-21" d="M497.07 457.48v31h-12M452.07 398.98v37h-12M478.07 103.97v27h-12M454.07 393.98v-26h55.5M426.07 402.48h-20.5M522.57 162.98h46M496.07 69.98h82"/><path d="M928 596h1v1h-1zM0 596h1v1H0zM928 0h1v1h-1zM0 0h1v1H0z"/></svg>