<?xml version="1.0" encoding="utf-8"?>
<!-- Generator: Adobe Illustrator 23.0.0, SVG Export Plug-In . SVG Version: 6.00 Build 0)  -->
<svg version="1.1" id="Layer_1" xmlns="http://www.w3.org/2000/svg" xmlns:xlink="http://www.w3.org/1999/xlink" x="0px" y="0px"
	 viewBox="0 0 1920 1080" style="enable-background:new 0 0 1920 1080;" xml:space="preserve">
<style type="text/css">
	.st0{fill:#FFFFFF;}
	.st1{fill:#FF1F2D;}
	.st2{fill:#FF202C;}
</style>
<g>
	<polyline class="st0" points="1012.5,147.6 1030.8,369.1 809.2,387.3 791,165.8 1012.5,147.6 	"/>
	<path class="st1" d="M1012.5,147.6l18.3,221.5l-221.5,18.3L791,165.8L1012.5,147.6 M1047.3,106.6L750,131.1l24.5,297.3l297.3-24.5
		L1047.3,106.6L1047.3,106.6z"/>
	<path class="st2" d="M934.8,314.4l38.8-3.1L922.5,209l-37.3,3.2L853.5,321l36.8-3l3.9-16.7l34.1-2.7L934.8,314.4z M900.6,274.5
		l6.5-27.3l10.7,26L900.6,274.5z"/>
</g>
</svg>
