<?xml version="1.0" encoding="utf-8"?>
<!-- Generator: Adobe Illustrator 23.0.0, SVG Export Plug-In . SVG Version: 6.00 Build 0)  -->
<svg version="1.1" id="Layer_1" xmlns="http://www.w3.org/2000/svg" xmlns:xlink="http://www.w3.org/1999/xlink" x="0px" y="0px"
	 viewBox="0 0 156.5 100" style="enable-background:new 0 0 156.5 100;" xml:space="preserve">
<style type="text/css">
	.st0{fill:#FFAC00;}
	.st1{font-family:'RobotoSlab-Bold';}
	.st2{font-size:16px;}
	.st3{fill:none;stroke:#FFAC00;stroke-miterlimit:10;}
	.st4{fill:#808080;}
	.st5{fill:none;stroke:#808080;stroke-miterlimit:10;}
</style>
<g>
	<text transform="matrix(1 0 0 1 62.6881 70.8531)" class="st0 st1 st2">Középkor</text>
</g>
<g>
	<g>
		<line class="st3" x1="13.5" y1="66.4" x2="53.4" y2="66.4"/>
		<g>
			<path class="st0" d="M13.6,68.7c-1.2,0-2.3-1-2.3-2.3c0-1.2,1-2.3,2.3-2.3c1.2,0,2.3,1,2.3,2.3C15.9,67.7,14.9,68.7,13.6,68.7z"
				/>
		</g>
		<g>
			<polygon class="st0" points="50.1,70.5 49.4,69.8 53,66.4 49.4,63.1 50.1,62.3 54.5,66.4 			"/>
		</g>
	</g>
</g>
<g>
	<text transform="matrix(1 0 0 1 62.6881 39.2313)" class="st4 st1 st2">bővebben</text>
</g>
<g>
	<g>
		<line class="st5" x1="13.5" y1="34.8" x2="53.4" y2="34.8"/>
		<g>
			<path class="st4" d="M13.6,37c-1.2,0-2.3-1-2.3-2.3c0-1.2,1-2.3,2.3-2.3c1.2,0,2.3,1,2.3,2.3C15.9,36,14.9,37,13.6,37z"/>
		</g>
		<g>
			<polygon class="st4" points="50.1,38.9 49.4,38.1 53,34.8 49.4,31.4 50.1,30.7 54.5,34.8 			"/>
		</g>
	</g>
</g>
</svg>
