<?xml version="1.0" encoding="utf-8"?>
<!-- Generator: Adobe Illustrator 23.0.0, SVG Export Plug-In . SVG Version: 6.00 Build 0)  -->
<svg version="1.1" id="Layer_1" xmlns="http://www.w3.org/2000/svg" xmlns:xlink="http://www.w3.org/1999/xlink" x="0px" y="0px"
	 viewBox="0 0 1920 1080" style="enable-background:new 0 0 1920 1080;" xml:space="preserve">
<style type="text/css">
	.st0{fill:#666666;}
	.st1{fill:#FFFFFF;}
	.st2{font-family:'RobotoSlab-Bold';}
	.st3{font-size:48px;}
	.st4{fill:#E6E6E6;}
	.st5{font-family:'Roboto-Regular';}
	.st6{font-size:29px;}
	.st7{fill:#FFAC00;}
	.st8{font-size:24px;}
	.st9{fill:none;stroke:#FFAC00;stroke-width:2;stroke-miterlimit:10;}
	.st10{fill:#40403F;}
	.st11{fill:#999999;}
</style>
<rect x="420" y="158" width="1200" height="763"/>
<g>
	<path class="st0" d="M560.8,460.4c-0.5,0.1-0.8,0.1-0.8,0.1l0-0.1c0.4-0.3,1.5-1.4,1.6-1.9c0.1-0.2,0-0.3,0-0.3l-1.4,0.6l-1.1,0.5
		l0,0c-0.8-0.8-2-1.4-3.3-1.4c-2.4,0-4.3,1.7-4.3,3.8c0,0.4,0.1,1.1,0.2,1.4c0,0.1,0-0.1,0,0c-1.5,0-3.5-0.7-5.2-1.6
		c-3.4-1.7-3.7-3-3.7-3c-0.5,0.6-0.8,2.5-0.3,4c0.4,1,1.6,1.8,1.6,1.8l0,0c0,0-0.5,0-1.1-0.2c-0.6-0.2-0.8-0.4-0.8-0.4
		c-0.3,0.8,0.3,2.3,1.5,3.3c0.7,0.6,1.9,1,1.9,1l-1.9,0.1c-0.1,1.9,4,3,4,3l0,0c-1.2,0.9-2.6,1.5-4.1,1.5c-0.8,0-1.5-0.1-2.2-0.3
		c2,1.6,4.5,2.7,7.2,2.6c7.2-0.4,11.3-6.6,11.5-12.7l0,0c0,0,0.3-0.2,1.1-0.9c0.7-0.7,1.2-1.6,1.2-1.6S561.3,460.2,560.8,460.4z"/>
	<path class="st0" d="M471.2,479.1v-11.5h3.9l0.6-4.5h-4.4v-2.9c0-1.3,0.4-2.2,2.2-2.2l2.4,0v-4c-0.4-0.1-1.8-0.2-3.5-0.2
		c-3.4,0-5.8,2.1-5.8,5.9v3.3h-3.9v4.5h3.9v11.5H471.2L471.2,479.1z"/>
	<g>
		<g>
			<path class="st0" d="M515.5,478.4h-9.6c-4.2,0-7.7-3.4-7.7-7.7v-8.4c0-4.2,3.5-7.7,7.7-7.7h9.6c4.2,0,7.7,3.4,7.7,7.7v8.4
				C523.1,474.9,519.7,478.4,515.5,478.4z M505.9,456.3c-3.3,0-6,2.7-6,6v8.4c0,3.3,2.7,6,6,6h9.6c3.3,0,6-2.7,6-6v-8.4
				c0-3.3-2.7-6-6-6H505.9z"/>
		</g>
		<g>
			<path class="st0" d="M510.7,473.3c-3.8,0-6.8-3.1-6.8-6.8c0-3.8,3.1-6.8,6.8-6.8c3.8,0,6.8,3.1,6.8,6.8
				C517.5,470.2,514.5,473.3,510.7,473.3z M510.7,461.3c-2.8,0-5.1,2.3-5.1,5.1c0,2.8,2.3,5.1,5.1,5.1c2.8,0,5.1-2.3,5.1-5.1
				C515.8,463.6,513.5,461.3,510.7,461.3z"/>
		</g>
		<g>
			<path class="st0" d="M518.8,459.8c0,0.8-0.6,1.4-1.4,1.4c-0.8,0-1.4-0.6-1.4-1.4c0-0.8,0.6-1.4,1.4-1.4
				C518.2,458.4,518.8,459,518.8,459.8z"/>
		</g>
	</g>
</g>
<g>
	<text transform="matrix(1 0 0 1 463.9466 302.4247)" class="st1 st2 st3">A HOLTAKRA ÉPÜLT VÁROS</text>
</g>
<g>
	<text transform="matrix(1 0 0 1 460.1379 351.7202)" class="st4 st5 st6">Temetők Budapesten a középkortól napjainkig</text>
</g>
<g>
	<text transform="matrix(1 0 0 1 500.1379 422.1937)" class="st7 st5 st8">BÁTORFY ATTILA</text>
</g>
<g>
	<polygon class="st9" points="996.8,820.7 1460,820.7 1460,267.3 1253.4,267.3 	"/>
	<g>
		<rect x="1045.9" y="786" class="st10" width="3.4" height="18.9"/>
		
			<rect x="1045.9" y="785.9" transform="matrix(6.123234e-17 -1 1 6.123234e-17 255.3136 1840.0223)" class="st10" width="3.4" height="13"/>
	</g>
	<g>
		<rect x="1129.2" y="786" class="st10" width="3.4" height="18.9"/>
		
			<rect x="1129.2" y="785.9" transform="matrix(6.123234e-17 -1 1 6.123234e-17 338.5831 1923.2917)" class="st10" width="3.4" height="13"/>
	</g>
	<g>
		<rect x="1087.6" y="786" class="st10" width="3.4" height="18.9"/>
		
			<rect x="1087.6" y="785.9" transform="matrix(6.123234e-17 -1 1 6.123234e-17 296.9484 1881.657)" class="st10" width="3.4" height="13"/>
	</g>
	<g>
		<rect x="1170.9" y="786" class="st10" width="3.4" height="18.9"/>
		
			<rect x="1170.9" y="785.9" transform="matrix(6.123234e-17 -1 1 6.123234e-17 380.2178 1964.9265)" class="st10" width="3.4" height="13"/>
	</g>
	<g>
		<rect x="1212.5" y="786" class="st10" width="3.4" height="18.9"/>
		
			<rect x="1212.5" y="785.9" transform="matrix(6.123234e-17 -1 1 6.123234e-17 421.8525 2006.5612)" class="st10" width="3.4" height="13"/>
	</g>
	<g>
		<rect x="1254.1" y="786" class="st10" width="3.4" height="18.9"/>
		
			<rect x="1254.1" y="785.9" transform="matrix(6.123234e-17 -1 1 6.123234e-17 463.4872 2048.1958)" class="st10" width="3.4" height="13"/>
	</g>
	<g>
		<rect x="1295.8" y="786" class="st10" width="3.4" height="18.9"/>
		
			<rect x="1295.8" y="785.9" transform="matrix(6.123234e-17 -1 1 6.123234e-17 505.1219 2089.8306)" class="st10" width="3.4" height="13"/>
	</g>
	<g>
		<rect x="1337.4" y="786" class="st10" width="3.4" height="18.9"/>
		
			<rect x="1337.4" y="785.9" transform="matrix(6.123234e-17 -1 1 6.123234e-17 546.7567 2131.4653)" class="st10" width="3.4" height="13"/>
	</g>
	<g>
		<rect x="1379" y="786" class="st10" width="3.4" height="18.9"/>
		
			<rect x="1379" y="785.9" transform="matrix(6.123234e-17 -1 1 6.123234e-17 588.3914 2173.1001)" class="st10" width="3.4" height="13"/>
	</g>
	<g>
		<rect x="1420.7" y="786" class="st10" width="3.4" height="18.9"/>
		
			<rect x="1420.7" y="785.9" transform="matrix(6.123234e-17 -1 1 6.123234e-17 630.0261 2214.7349)" class="st10" width="3.4" height="13"/>
	</g>
	<g>
		<rect x="1069.5" y="735" class="st10" width="3.4" height="18.9"/>
		
			<rect x="1069.5" y="734.9" transform="matrix(6.123234e-17 -1 1 6.123234e-17 329.843 1812.6169)" class="st10" width="3.4" height="13"/>
	</g>
	<g>
		<rect x="1113.4" y="735" class="st10" width="3.4" height="18.9"/>
		
			<rect x="1113.4" y="734.9" transform="matrix(6.123234e-17 -1 1 6.123234e-17 373.7368 1856.5107)" class="st10" width="3.4" height="13"/>
	</g>
	<g>
		<rect x="1157.3" y="735" class="st10" width="3.4" height="18.9"/>
		
			<rect x="1157.3" y="734.9" transform="matrix(6.123234e-17 -1 1 6.123234e-17 417.6306 1900.4045)" class="st10" width="3.4" height="13"/>
	</g>
	<g>
		<rect x="1201.2" y="735" class="st10" width="3.4" height="18.9"/>
		
			<rect x="1201.2" y="734.9" transform="matrix(6.123234e-17 -1 1 6.123234e-17 461.5244 1944.2983)" class="st10" width="3.4" height="13"/>
	</g>
	<g>
		<rect x="1245.1" y="735" class="st10" width="3.4" height="18.9"/>
		
			<rect x="1245.1" y="734.9" transform="matrix(6.123234e-17 -1 1 6.123234e-17 505.4182 1988.1921)" class="st10" width="3.4" height="13"/>
	</g>
	<g>
		<rect x="1289" y="735" class="st10" width="3.4" height="18.9"/>
		
			<rect x="1289" y="734.9" transform="matrix(6.123234e-17 -1 1 6.123234e-17 549.3121 2032.0859)" class="st10" width="3.4" height="13"/>
	</g>
	<g>
		<rect x="1332.9" y="735" class="st10" width="3.4" height="18.9"/>
		
			<rect x="1332.9" y="734.9" transform="matrix(6.123234e-17 -1 1 6.123234e-17 593.2059 2075.9797)" class="st10" width="3.4" height="13"/>
	</g>
	<g>
		<rect x="1376.8" y="735" class="st10" width="3.4" height="18.9"/>
		
			<rect x="1376.8" y="734.9" transform="matrix(6.123234e-17 -1 1 6.123234e-17 637.0997 2119.8735)" class="st10" width="3.4" height="13"/>
	</g>
	<g>
		<rect x="1420.7" y="735" class="st10" width="3.4" height="18.9"/>
		
			<rect x="1420.7" y="734.9" transform="matrix(6.123234e-17 -1 1 6.123234e-17 680.9935 2163.7673)" class="st10" width="3.4" height="13"/>
	</g>
	<g>
		<rect x="1133.7" y="684" class="st10" width="3.4" height="18.9"/>
		
			<rect x="1133.7" y="683.9" transform="matrix(6.123234e-17 -1 1 6.123234e-17 444.9886 1825.8278)" class="st10" width="3.4" height="13"/>
	</g>
	<g>
		<rect x="1092.7" y="684" class="st10" width="3.4" height="18.9"/>
		
			<rect x="1092.7" y="683.9" transform="matrix(6.123234e-17 -1 1 6.123234e-17 403.9926 1784.8317)" class="st10" width="3.4" height="13"/>
	</g>
	<g>
		<rect x="1174.7" y="684" class="st10" width="3.4" height="18.9"/>
		
			<rect x="1174.7" y="683.9" transform="matrix(6.123234e-17 -1 1 6.123234e-17 485.9846 1866.8237)" class="st10" width="3.4" height="13"/>
	</g>
	<g>
		<rect x="1215.7" y="684" class="st10" width="3.4" height="18.9"/>
		
			<rect x="1215.7" y="683.9" transform="matrix(6.123234e-17 -1 1 6.123234e-17 526.9807 1907.8198)" class="st10" width="3.4" height="13"/>
	</g>
	<g>
		<rect x="1256.7" y="684" class="st10" width="3.4" height="18.9"/>
		
			<rect x="1256.7" y="683.9" transform="matrix(6.123234e-17 -1 1 6.123234e-17 567.9767 1948.8158)" class="st10" width="3.4" height="13"/>
	</g>
	<g>
		<rect x="1297.7" y="684" class="st10" width="3.4" height="18.9"/>
		
			<rect x="1297.7" y="683.9" transform="matrix(6.123234e-17 -1 1 6.123234e-17 608.9728 1989.8119)" class="st10" width="3.4" height="13"/>
	</g>
	<g>
		<rect x="1338.7" y="684" class="st10" width="3.4" height="18.9"/>
		
			<rect x="1338.7" y="683.9" transform="matrix(6.123234e-17 -1 1 6.123234e-17 649.9688 2030.808)" class="st10" width="3.4" height="13"/>
	</g>
	<g>
		<rect x="1379.7" y="684" class="st10" width="3.4" height="18.9"/>
		
			<rect x="1379.7" y="683.9" transform="matrix(6.123234e-17 -1 1 6.123234e-17 690.9648 2071.804)" class="st10" width="3.4" height="13"/>
	</g>
	<g>
		<rect x="1420.7" y="684" class="st10" width="3.4" height="18.9"/>
		
			<rect x="1420.7" y="683.9" transform="matrix(6.123234e-17 -1 1 6.123234e-17 731.9609 2112.8)" class="st10" width="3.4" height="13"/>
	</g>
	<g>
		<rect x="1116.9" y="633.1" class="st10" width="3.4" height="18.9"/>
		
			<rect x="1116.9" y="633" transform="matrix(6.123234e-17 -1 1 6.123234e-17 479.1425 1758.0469)" class="st10" width="3.4" height="13"/>
	</g>
	<g>
		<rect x="1160.3" y="633.1" class="st10" width="3.4" height="18.9"/>
		
			<rect x="1160.3" y="633" transform="matrix(6.123234e-17 -1 1 6.123234e-17 522.5405 1801.4448)" class="st10" width="3.4" height="13"/>
	</g>
	<g>
		<rect x="1203.7" y="633.1" class="st10" width="3.4" height="18.9"/>
		
			<rect x="1203.7" y="633" transform="matrix(6.123234e-17 -1 1 6.123234e-17 565.9384 1844.8428)" class="st10" width="3.4" height="13"/>
	</g>
	<g>
		<rect x="1247.1" y="633.1" class="st10" width="3.4" height="18.9"/>
		
			<rect x="1247.1" y="633" transform="matrix(6.123234e-17 -1 1 6.123234e-17 609.3364 1888.2407)" class="st10" width="3.4" height="13"/>
	</g>
	<g>
		<rect x="1290.5" y="633.1" class="st10" width="3.4" height="18.9"/>
		
			<rect x="1290.5" y="633" transform="matrix(6.123234e-17 -1 1 6.123234e-17 652.7344 1931.6387)" class="st10" width="3.4" height="13"/>
	</g>
	<g>
		<rect x="1333.9" y="633.1" class="st10" width="3.4" height="18.9"/>
		
			<rect x="1333.9" y="633" transform="matrix(6.123234e-17 -1 1 6.123234e-17 696.1323 1975.0367)" class="st10" width="3.4" height="13"/>
	</g>
	<g>
		<rect x="1377.3" y="633.1" class="st10" width="3.4" height="18.9"/>
		
			<rect x="1377.3" y="633" transform="matrix(6.123234e-17 -1 1 6.123234e-17 739.5303 2018.4347)" class="st10" width="3.4" height="13"/>
	</g>
	<g>
		<rect x="1420.7" y="633.1" class="st10" width="3.4" height="18.9"/>
		
			<rect x="1420.7" y="633" transform="matrix(6.123234e-17 -1 1 6.123234e-17 782.9283 2061.8325)" class="st10" width="3.4" height="13"/>
	</g>
	<g>
		<rect x="1140.6" y="582.1" class="st10" width="3.4" height="18.9"/>
		
			<rect x="1140.6" y="582" transform="matrix(6.123234e-17 -1 1 6.123234e-17 553.8573 1730.8268)" class="st10" width="3.4" height="13"/>
	</g>
	<g>
		<rect x="1187.3" y="582.1" class="st10" width="3.4" height="18.9"/>
		
			<rect x="1187.3" y="582" transform="matrix(6.123234e-17 -1 1 6.123234e-17 600.5303 1777.4999)" class="st10" width="3.4" height="13"/>
	</g>
	<g>
		<rect x="1234" y="582.1" class="st10" width="3.4" height="18.9"/>
		
			<rect x="1234" y="582" transform="matrix(6.123234e-17 -1 1 6.123234e-17 647.2034 1824.173)" class="st10" width="3.4" height="13"/>
	</g>
	<g>
		<rect x="1280.6" y="582.1" class="st10" width="3.4" height="18.9"/>
		
			<rect x="1280.6" y="582" transform="matrix(6.123234e-17 -1 1 6.123234e-17 693.8765 1870.8461)" class="st10" width="3.4" height="13"/>
	</g>
	<g>
		<rect x="1327.3" y="582.1" class="st10" width="3.4" height="18.9"/>
		
			<rect x="1327.3" y="582" transform="matrix(6.123234e-17 -1 1 6.123234e-17 740.5496 1917.519)" class="st10" width="3.4" height="13"/>
	</g>
	<g>
		<rect x="1374" y="582.1" class="st10" width="3.4" height="18.9"/>
		
			<rect x="1374" y="582" transform="matrix(6.123234e-17 -1 1 6.123234e-17 787.2226 1964.1921)" class="st10" width="3.4" height="13"/>
	</g>
	<g>
		<rect x="1420.7" y="582.1" class="st10" width="3.4" height="18.9"/>
		
			<rect x="1420.7" y="582" transform="matrix(6.123234e-17 -1 1 6.123234e-17 833.8957 2010.8652)" class="st10" width="3.4" height="13"/>
	</g>
	<g>
		<rect x="1164" y="531.1" class="st10" width="3.4" height="18.9"/>
		
			<rect x="1164" y="531" transform="matrix(6.123234e-17 -1 1 6.123234e-17 628.2027 1703.2374)" class="st10" width="3.4" height="13"/>
	</g>
	<g>
		<rect x="1206.8" y="531.1" class="st10" width="3.4" height="18.9"/>
		
			<rect x="1206.8" y="531" transform="matrix(6.123234e-17 -1 1 6.123234e-17 670.9794 1746.0142)" class="st10" width="3.4" height="13"/>
	</g>
	<g>
		<rect x="1249.6" y="531.1" class="st10" width="3.4" height="18.9"/>
		
			<rect x="1249.6" y="531" transform="matrix(6.123234e-17 -1 1 6.123234e-17 713.7561 1788.7909)" class="st10" width="3.4" height="13"/>
	</g>
	<g>
		<rect x="1292.3" y="531.1" class="st10" width="3.4" height="18.9"/>
		
			<rect x="1292.3" y="531" transform="matrix(6.123234e-17 -1 1 6.123234e-17 756.5328 1831.5676)" class="st10" width="3.4" height="13"/>
	</g>
	<g>
		<rect x="1335.1" y="531.1" class="st10" width="3.4" height="18.9"/>
		
			<rect x="1335.1" y="531" transform="matrix(6.123234e-17 -1 1 6.123234e-17 799.3096 1874.3444)" class="st10" width="3.4" height="13"/>
	</g>
	<g>
		<rect x="1377.9" y="531.1" class="st10" width="3.4" height="18.9"/>
		
			<rect x="1377.9" y="531" transform="matrix(6.123234e-17 -1 1 6.123234e-17 842.0863 1917.1211)" class="st10" width="3.4" height="13"/>
	</g>
	<g>
		<rect x="1420.7" y="531.1" class="st10" width="3.4" height="18.9"/>
		
			<rect x="1420.7" y="531" transform="matrix(6.123234e-17 -1 1 6.123234e-17 884.863 1959.8978)" class="st10" width="3.4" height="13"/>
	</g>
	<g>
		<rect x="1187.6" y="480.2" class="st10" width="3.4" height="18.9"/>
		
			<rect x="1187.6" y="480.1" transform="matrix(6.123234e-17 -1 1 6.123234e-17 702.7813 1675.8812)" class="st10" width="3.4" height="13"/>
	</g>
	<g>
		<rect x="1234.2" y="480.2" class="st10" width="3.4" height="18.9"/>
		
			<rect x="1234.2" y="480.1" transform="matrix(6.123234e-17 -1 1 6.123234e-17 749.3911 1722.4911)" class="st10" width="3.4" height="13"/>
	</g>
	<g>
		<rect x="1280.8" y="480.2" class="st10" width="3.4" height="18.9"/>
		
			<rect x="1280.8" y="480.1" transform="matrix(6.123234e-17 -1 1 6.123234e-17 796.0009 1769.101)" class="st10" width="3.4" height="13"/>
	</g>
	<g>
		<rect x="1327.4" y="480.2" class="st10" width="3.4" height="18.9"/>
		
			<rect x="1327.4" y="480.1" transform="matrix(6.123234e-17 -1 1 6.123234e-17 842.6108 1815.7108)" class="st10" width="3.4" height="13"/>
	</g>
	<g>
		<rect x="1374" y="480.2" class="st10" width="3.4" height="18.9"/>
		
			<rect x="1374" y="480.1" transform="matrix(6.123234e-17 -1 1 6.123234e-17 889.2206 1862.3206)" class="st10" width="3.4" height="13"/>
	</g>
	<g>
		<rect x="1420.7" y="480.2" class="st10" width="3.4" height="18.9"/>
		
			<rect x="1420.7" y="480.1" transform="matrix(6.123234e-17 -1 1 6.123234e-17 935.8304 1908.9304)" class="st10" width="3.4" height="13"/>
	</g>
	<g>
		<rect x="1211.3" y="429.2" class="st10" width="3.4" height="18.9"/>
		
			<rect x="1211.3" y="429.1" transform="matrix(6.123234e-17 -1 1 6.123234e-17 777.4403 1648.6055)" class="st10" width="3.4" height="13"/>
	</g>
	<g>
		<rect x="1253.2" y="429.2" class="st10" width="3.4" height="18.9"/>
		
			<rect x="1253.2" y="429.1" transform="matrix(6.123234e-17 -1 1 6.123234e-17 819.3118 1690.4771)" class="st10" width="3.4" height="13"/>
	</g>
	<g>
		<rect x="1295" y="429.2" class="st10" width="3.4" height="18.9"/>
		
			<rect x="1295" y="429.1" transform="matrix(6.123234e-17 -1 1 6.123234e-17 861.1833 1732.3485)" class="st10" width="3.4" height="13"/>
	</g>
	<g>
		<rect x="1336.9" y="429.2" class="st10" width="3.4" height="18.9"/>
		
			<rect x="1336.9" y="429.1" transform="matrix(6.123234e-17 -1 1 6.123234e-17 903.0548 1774.2201)" class="st10" width="3.4" height="13"/>
	</g>
	<g>
		<rect x="1378.8" y="429.2" class="st10" width="3.4" height="18.9"/>
		
			<rect x="1378.8" y="429.1" transform="matrix(6.123234e-17 -1 1 6.123234e-17 944.9263 1816.0916)" class="st10" width="3.4" height="13"/>
	</g>
	<g>
		<rect x="1420.7" y="429.2" class="st10" width="3.4" height="18.9"/>
		
			<rect x="1420.7" y="429.1" transform="matrix(6.123234e-17 -1 1 6.123234e-17 986.7979 1857.963)" class="st10" width="3.4" height="13"/>
	</g>
	<g>
		<rect x="1234.9" y="378.2" class="st10" width="3.4" height="18.9"/>
		
			<rect x="1234.9" y="378.1" transform="matrix(6.123234e-17 -1 1 6.123234e-17 852.0402 1621.2706)" class="st10" width="3.4" height="13"/>
	</g>
	<g>
		<rect x="1281.4" y="378.2" class="st10" width="3.4" height="18.9"/>
		
			<rect x="1281.4" y="378.1" transform="matrix(6.123234e-17 -1 1 6.123234e-17 898.4715 1667.7019)" class="st10" width="3.4" height="13"/>
	</g>
	<g>
		<rect x="1327.8" y="378.2" class="st10" width="3.4" height="18.9"/>
		
			<rect x="1327.8" y="378.1" transform="matrix(6.123234e-17 -1 1 6.123234e-17 944.9027 1714.1332)" class="st10" width="3.4" height="13"/>
	</g>
	<g>
		<rect x="1374.2" y="378.2" class="st10" width="3.4" height="18.9"/>
		
			<rect x="1374.2" y="378.1" transform="matrix(6.123234e-17 -1 1 6.123234e-17 991.334 1760.5645)" class="st10" width="3.4" height="13"/>
	</g>
	<g>
		<rect x="1420.7" y="378.2" class="st10" width="3.4" height="18.9"/>
		
			<rect x="1420.7" y="378.1" transform="matrix(6.123234e-17 -1 1 6.123234e-17 1037.7653 1806.9956)" class="st10" width="3.4" height="13"/>
	</g>
	<g>
		<rect x="1258.6" y="327.3" class="st10" width="3.4" height="18.9"/>
		
			<rect x="1258.6" y="327.1" transform="matrix(6.123234e-17 -1 1 6.123234e-17 926.7 1593.9957)" class="st10" width="3.4" height="13"/>
	</g>
	<g>
		<rect x="1299.1" y="327.3" class="st10" width="3.4" height="18.9"/>
		
			<rect x="1299.1" y="327.1" transform="matrix(6.123234e-17 -1 1 6.123234e-17 967.2082 1634.5038)" class="st10" width="3.4" height="13"/>
	</g>
	<g>
		<rect x="1339.6" y="327.3" class="st10" width="3.4" height="18.9"/>
		
			<rect x="1339.6" y="327.1" transform="matrix(6.123234e-17 -1 1 6.123234e-17 1007.7163 1675.012)" class="st10" width="3.4" height="13"/>
	</g>
	<g>
		<rect x="1380.2" y="327.3" class="st10" width="3.4" height="18.9"/>
		
			<rect x="1380.2" y="327.1" transform="matrix(6.123234e-17 -1 1 6.123234e-17 1048.2245 1715.5201)" class="st10" width="3.4" height="13"/>
	</g>
	<g>
		<rect x="1420.7" y="327.3" class="st10" width="3.4" height="18.9"/>
		
			<rect x="1420.7" y="327.1" transform="matrix(6.123234e-17 -1 1 6.123234e-17 1088.7327 1756.0283)" class="st10" width="3.4" height="13"/>
	</g>
	<g>
		<rect x="1282.2" y="276.3" class="st10" width="3.4" height="18.9"/>
		
			<rect x="1282.2" y="276.2" transform="matrix(6.123234e-17 -1 1 6.123234e-17 1001.2851 1566.646)" class="st10" width="3.4" height="13"/>
	</g>
	<g>
		<rect x="1328.4" y="276.3" class="st10" width="3.4" height="18.9"/>
		
			<rect x="1328.4" y="276.2" transform="matrix(6.123234e-17 -1 1 6.123234e-17 1047.4233 1612.7843)" class="st10" width="3.4" height="13"/>
	</g>
	<g>
		<rect x="1374.5" y="276.3" class="st10" width="3.4" height="18.9"/>
		
			<rect x="1374.5" y="276.2" transform="matrix(6.123234e-17 -1 1 6.123234e-17 1093.5616 1658.9226)" class="st10" width="3.4" height="13"/>
	</g>
	<g>
		<rect x="1420.7" y="276.3" class="st10" width="3.4" height="18.9"/>
		
			<rect x="1420.7" y="276.2" transform="matrix(6.123234e-17 -1 1 6.123234e-17 1139.7001 1705.0609)" class="st10" width="3.4" height="13"/>
	</g>
</g>
<g>
	<circle class="st7" cx="1540" cy="316.1" r="13.5"/>
	<circle class="st11" cx="1540" cy="377.2" r="13.5"/>
	<circle class="st11" cx="1540" cy="438.3" r="13.5"/>
	<circle class="st11" cx="1540" cy="499.4" r="13.5"/>
	<circle class="st11" cx="1540" cy="560.5" r="13.5"/>
	<circle class="st11" cx="1540" cy="621.5" r="13.5"/>
	<circle class="st11" cx="1540" cy="682.6" r="13.5"/>
	<circle class="st11" cx="1540" cy="743.7" r="13.5"/>
	<circle class="st11" cx="1540" cy="804.8" r="13.5"/>
</g>
<path class="st11" d="M461.4,399.5v29.2h29.2v-29.2H461.4z M466.2,402.7l15.9,1.3l-17.4,17.4L466.2,402.7z M485.8,425.9l-16.3-1.3
	l17.9-17.9L485.8,425.9z"/>
</svg>
