<?xml version="1.0" encoding="utf-8"?>
<!-- Generator: Adobe Illustrator 23.0.0, SVG Export Plug-In . SVG Version: 6.00 Build 0)  -->
<svg version="1.0" id="Layer_1" xmlns="http://www.w3.org/2000/svg" xmlns:xlink="http://www.w3.org/1999/xlink" x="0px" y="0px"
	 viewBox="0 0 1920 1080" enable-background="new 0 0 1920 1080" xml:space="preserve">
<rect x="420" y="158" width="1200" height="763"/>
<g>
	<path fill="#666666" d="M560.83,450.36c-0.46,0.13-0.81,0.11-0.81,0.11l0.01-0.09c0.42-0.34,1.49-1.38,1.63-1.87
		c0.06-0.21-0.01-0.28-0.01-0.29l-1.37,0.58l-1.14,0.52l0,0c-0.79-0.83-1.98-1.37-3.32-1.37c-2.38,0-4.3,1.68-4.3,3.76
		c0,0.38,0.06,1.07,0.18,1.42c0,0.11,0-0.11,0,0c-1.53-0.04-3.49-0.67-5.24-1.55c-3.44-1.74-3.66-2.95-3.66-2.95
		c-0.54,0.57-0.82,2.48-0.27,3.97c0.35,0.95,1.56,1.81,1.56,1.81l0,0c0,0-0.54,0.01-1.1-0.18c-0.57-0.19-0.78-0.38-0.78-0.38
		c-0.34,0.82,0.34,2.28,1.5,3.33c0.68,0.61,1.92,1,1.92,1l-1.94,0.05c-0.11,1.88,3.95,3,3.95,3l0,0c-1.19,0.91-2.57,1.47-4.05,1.47
		c-0.77,0-1.51-0.11-2.21-0.32c1.96,1.61,4.47,2.72,7.2,2.58c7.25-0.38,11.34-6.61,11.54-12.73l0.01,0.01c0,0,0.34-0.17,1.07-0.9
		c0.73-0.73,1.18-1.58,1.18-1.58S561.28,450.23,560.83,450.36z"/>
	<path fill="#666666" d="M471.23,469.08v-11.52h3.87l0.58-4.49h-4.45v-2.87c0-1.3,0.36-2.18,2.22-2.18l2.38,0v-4.01
		c-0.41-0.05-1.82-0.18-3.46-0.18c-3.43,0-5.77,2.09-5.77,5.93v3.31h-3.88v4.49h3.88v11.52H471.23L471.23,469.08z"/>
	<g>
		<g>
			<path fill="#666666" d="M515.46,468.36h-9.55c-4.24,0-7.69-3.45-7.69-7.69v-8.42c0-4.24,3.45-7.69,7.69-7.69h9.55
				c4.24,0,7.69,3.45,7.69,7.69v8.42C523.15,464.91,519.7,468.36,515.46,468.36z M505.9,446.27c-3.3,0-5.98,2.68-5.98,5.98v8.42
				c0,3.3,2.68,5.98,5.98,5.98h9.55c3.3,0,5.98-2.68,5.98-5.98v-8.42c0-3.3-2.68-5.98-5.98-5.98H505.9z"/>
		</g>
		<g>
			<path fill="#666666" d="M510.68,463.3c-3.77,0-6.85-3.07-6.85-6.85c0-3.77,3.07-6.85,6.85-6.85c3.77,0,6.85,3.07,6.85,6.85
				C517.53,460.23,514.45,463.3,510.68,463.3z M510.68,451.32c-2.83,0-5.14,2.3-5.14,5.14c0,2.83,2.3,5.14,5.14,5.14
				c2.83,0,5.14-2.3,5.14-5.14C515.82,453.62,513.51,451.32,510.68,451.32z"/>
		</g>
		<g>
			<path fill="#666666" d="M518.84,449.82c0,0.78-0.64,1.42-1.42,1.42c-0.78,0-1.42-0.64-1.42-1.42c0-0.78,0.64-1.42,1.42-1.42
				C518.21,448.4,518.84,449.04,518.84,449.82z"/>
		</g>
	</g>
</g>
<g>
	<text transform="matrix(1 0 0 1 463.9466 302.4247)" fill="#FFFFFF" font-family="'RobotoSlab-Bold'" font-size="48px">A HOLTAKRA ÉPÜLT VÁROS</text>
</g>
<g>
	<text transform="matrix(1 0 0 1 460.1379 351.7202)" fill="#E6E6E6" font-family="'Roboto-Regular'" font-size="29px">Temetők Budapesten a középkortól napjainkig</text>
</g>
<g>
	<text transform="matrix(1 0 0 1 460.1379 422.1937)" fill="#FFAC00" font-family="'Roboto-Regular'" font-size="24px">BÁTORFY ATTILA</text>
</g>
<g>
	<polygon fill="none" stroke="#FFAC00" stroke-width="2" stroke-miterlimit="10" points="996.79,820.71 1460.04,820.71 
		1460.04,267.33 1253.4,267.33 	"/>
	<g>
		<rect x="1045.95" y="785.97" fill="#40403F" width="3.44" height="18.89"/>
		
			<rect x="1045.95" y="785.86" transform="matrix(6.123234e-17 -1 1 6.123234e-17 255.3136 1840.0223)" fill="#40403F" width="3.44" height="13"/>
	</g>
	<g>
		<rect x="1129.22" y="785.97" fill="#40403F" width="3.44" height="18.89"/>
		
			<rect x="1129.22" y="785.86" transform="matrix(6.123234e-17 -1 1 6.123234e-17 338.5831 1923.2917)" fill="#40403F" width="3.44" height="13"/>
	</g>
	<g>
		<rect x="1087.58" y="785.97" fill="#40403F" width="3.44" height="18.89"/>
		
			<rect x="1087.58" y="785.86" transform="matrix(6.123234e-17 -1 1 6.123234e-17 296.9484 1881.657)" fill="#40403F" width="3.44" height="13"/>
	</g>
	<g>
		<rect x="1170.85" y="785.97" fill="#40403F" width="3.44" height="18.89"/>
		
			<rect x="1170.85" y="785.86" transform="matrix(6.123234e-17 -1 1 6.123234e-17 380.2178 1964.9265)" fill="#40403F" width="3.44" height="13"/>
	</g>
	<g>
		<rect x="1212.48" y="785.97" fill="#40403F" width="3.44" height="18.89"/>
		
			<rect x="1212.48" y="785.86" transform="matrix(6.123234e-17 -1 1 6.123234e-17 421.8525 2006.5612)" fill="#40403F" width="3.44" height="13"/>
	</g>
	<g>
		<rect x="1254.12" y="785.97" fill="#40403F" width="3.44" height="18.89"/>
		
			<rect x="1254.12" y="785.86" transform="matrix(6.123234e-17 -1 1 6.123234e-17 463.4872 2048.1958)" fill="#40403F" width="3.44" height="13"/>
	</g>
	<g>
		<rect x="1295.75" y="785.97" fill="#40403F" width="3.44" height="18.89"/>
		
			<rect x="1295.75" y="785.86" transform="matrix(6.123234e-17 -1 1 6.123234e-17 505.1219 2089.8306)" fill="#40403F" width="3.44" height="13"/>
	</g>
	<g>
		<rect x="1337.39" y="785.97" fill="#40403F" width="3.44" height="18.89"/>
		
			<rect x="1337.39" y="785.86" transform="matrix(6.123234e-17 -1 1 6.123234e-17 546.7567 2131.4653)" fill="#40403F" width="3.44" height="13"/>
	</g>
	<g>
		<rect x="1379.02" y="785.97" fill="#40403F" width="3.44" height="18.89"/>
		
			<rect x="1379.02" y="785.86" transform="matrix(6.123234e-17 -1 1 6.123234e-17 588.3914 2173.1001)" fill="#40403F" width="3.44" height="13"/>
	</g>
	<g>
		<rect x="1420.66" y="785.97" fill="#40403F" width="3.44" height="18.89"/>
		
			<rect x="1420.66" y="785.86" transform="matrix(6.123234e-17 -1 1 6.123234e-17 630.0261 2214.7349)" fill="#40403F" width="3.44" height="13"/>
	</g>
	<g>
		<rect x="1069.51" y="735" fill="#40403F" width="3.44" height="18.89"/>
		
			<rect x="1069.51" y="734.89" transform="matrix(6.123234e-17 -1 1 6.123234e-17 329.843 1812.6169)" fill="#40403F" width="3.44" height="13"/>
	</g>
	<g>
		<rect x="1113.4" y="735" fill="#40403F" width="3.44" height="18.89"/>
		
			<rect x="1113.4" y="734.89" transform="matrix(6.123234e-17 -1 1 6.123234e-17 373.7368 1856.5107)" fill="#40403F" width="3.44" height="13"/>
	</g>
	<g>
		<rect x="1157.3" y="735" fill="#40403F" width="3.44" height="18.89"/>
		
			<rect x="1157.3" y="734.89" transform="matrix(6.123234e-17 -1 1 6.123234e-17 417.6306 1900.4045)" fill="#40403F" width="3.44" height="13"/>
	</g>
	<g>
		<rect x="1201.19" y="735" fill="#40403F" width="3.44" height="18.89"/>
		
			<rect x="1201.19" y="734.89" transform="matrix(6.123234e-17 -1 1 6.123234e-17 461.5244 1944.2983)" fill="#40403F" width="3.44" height="13"/>
	</g>
	<g>
		<rect x="1245.08" y="735" fill="#40403F" width="3.44" height="18.89"/>
		
			<rect x="1245.08" y="734.89" transform="matrix(6.123234e-17 -1 1 6.123234e-17 505.4182 1988.1921)" fill="#40403F" width="3.44" height="13"/>
	</g>
	<g>
		<rect x="1288.98" y="735" fill="#40403F" width="3.44" height="18.89"/>
		
			<rect x="1288.98" y="734.89" transform="matrix(6.123234e-17 -1 1 6.123234e-17 549.3121 2032.0859)" fill="#40403F" width="3.44" height="13"/>
	</g>
	<g>
		<rect x="1332.87" y="735" fill="#40403F" width="3.44" height="18.89"/>
		
			<rect x="1332.87" y="734.89" transform="matrix(6.123234e-17 -1 1 6.123234e-17 593.2059 2075.9797)" fill="#40403F" width="3.44" height="13"/>
	</g>
	<g>
		<rect x="1376.76" y="735" fill="#40403F" width="3.44" height="18.89"/>
		
			<rect x="1376.76" y="734.89" transform="matrix(6.123234e-17 -1 1 6.123234e-17 637.0997 2119.8735)" fill="#40403F" width="3.44" height="13"/>
	</g>
	<g>
		<rect x="1420.66" y="735" fill="#40403F" width="3.44" height="18.89"/>
		
			<rect x="1420.66" y="734.89" transform="matrix(6.123234e-17 -1 1 6.123234e-17 680.9935 2163.7673)" fill="#40403F" width="3.44" height="13"/>
	</g>
	<g>
		<rect x="1133.69" y="684.03" fill="#40403F" width="3.44" height="18.89"/>
		
			<rect x="1133.69" y="683.92" transform="matrix(6.123234e-17 -1 1 6.123234e-17 444.9886 1825.8278)" fill="#40403F" width="3.44" height="13"/>
	</g>
	<g>
		<rect x="1092.69" y="684.03" fill="#40403F" width="3.44" height="18.89"/>
		
			<rect x="1092.69" y="683.92" transform="matrix(6.123234e-17 -1 1 6.123234e-17 403.9926 1784.8317)" fill="#40403F" width="3.44" height="13"/>
	</g>
	<g>
		<rect x="1174.68" y="684.03" fill="#40403F" width="3.44" height="18.89"/>
		
			<rect x="1174.68" y="683.92" transform="matrix(6.123234e-17 -1 1 6.123234e-17 485.9846 1866.8237)" fill="#40403F" width="3.44" height="13"/>
	</g>
	<g>
		<rect x="1215.68" y="684.03" fill="#40403F" width="3.44" height="18.89"/>
		
			<rect x="1215.68" y="683.92" transform="matrix(6.123234e-17 -1 1 6.123234e-17 526.9807 1907.8198)" fill="#40403F" width="3.44" height="13"/>
	</g>
	<g>
		<rect x="1256.67" y="684.03" fill="#40403F" width="3.44" height="18.89"/>
		
			<rect x="1256.67" y="683.92" transform="matrix(6.123234e-17 -1 1 6.123234e-17 567.9767 1948.8158)" fill="#40403F" width="3.44" height="13"/>
	</g>
	<g>
		<rect x="1297.67" y="684.03" fill="#40403F" width="3.44" height="18.89"/>
		
			<rect x="1297.67" y="683.92" transform="matrix(6.123234e-17 -1 1 6.123234e-17 608.9728 1989.8119)" fill="#40403F" width="3.44" height="13"/>
	</g>
	<g>
		<rect x="1338.67" y="684.03" fill="#40403F" width="3.44" height="18.89"/>
		
			<rect x="1338.67" y="683.92" transform="matrix(6.123234e-17 -1 1 6.123234e-17 649.9688 2030.808)" fill="#40403F" width="3.44" height="13"/>
	</g>
	<g>
		<rect x="1379.66" y="684.03" fill="#40403F" width="3.44" height="18.89"/>
		
			<rect x="1379.66" y="683.92" transform="matrix(6.123234e-17 -1 1 6.123234e-17 690.9648 2071.804)" fill="#40403F" width="3.44" height="13"/>
	</g>
	<g>
		<rect x="1420.66" y="684.03" fill="#40403F" width="3.44" height="18.89"/>
		
			<rect x="1420.66" y="683.92" transform="matrix(6.123234e-17 -1 1 6.123234e-17 731.9609 2112.8)" fill="#40403F" width="3.44" height="13"/>
	</g>
	<g>
		<rect x="1116.87" y="633.06" fill="#40403F" width="3.44" height="18.89"/>
		
			<rect x="1116.87" y="632.95" transform="matrix(6.123234e-17 -1 1 6.123234e-17 479.1425 1758.0469)" fill="#40403F" width="3.44" height="13"/>
	</g>
	<g>
		<rect x="1160.27" y="633.06" fill="#40403F" width="3.44" height="18.89"/>
		
			<rect x="1160.27" y="632.95" transform="matrix(6.123234e-17 -1 1 6.123234e-17 522.5405 1801.4448)" fill="#40403F" width="3.44" height="13"/>
	</g>
	<g>
		<rect x="1203.67" y="633.06" fill="#40403F" width="3.44" height="18.89"/>
		
			<rect x="1203.67" y="632.95" transform="matrix(6.123234e-17 -1 1 6.123234e-17 565.9384 1844.8428)" fill="#40403F" width="3.44" height="13"/>
	</g>
	<g>
		<rect x="1247.07" y="633.06" fill="#40403F" width="3.44" height="18.89"/>
		
			<rect x="1247.07" y="632.95" transform="matrix(6.123234e-17 -1 1 6.123234e-17 609.3364 1888.2407)" fill="#40403F" width="3.44" height="13"/>
	</g>
	<g>
		<rect x="1290.46" y="633.06" fill="#40403F" width="3.44" height="18.89"/>
		
			<rect x="1290.46" y="632.95" transform="matrix(6.123234e-17 -1 1 6.123234e-17 652.7344 1931.6387)" fill="#40403F" width="3.44" height="13"/>
	</g>
	<g>
		<rect x="1333.86" y="633.06" fill="#40403F" width="3.44" height="18.89"/>
		
			<rect x="1333.86" y="632.95" transform="matrix(6.123234e-17 -1 1 6.123234e-17 696.1323 1975.0367)" fill="#40403F" width="3.44" height="13"/>
	</g>
	<g>
		<rect x="1377.26" y="633.06" fill="#40403F" width="3.44" height="18.89"/>
		
			<rect x="1377.26" y="632.95" transform="matrix(6.123234e-17 -1 1 6.123234e-17 739.5303 2018.4347)" fill="#40403F" width="3.44" height="13"/>
	</g>
	<g>
		<rect x="1420.66" y="633.06" fill="#40403F" width="3.44" height="18.89"/>
		
			<rect x="1420.66" y="632.95" transform="matrix(6.123234e-17 -1 1 6.123234e-17 782.9283 2061.8325)" fill="#40403F" width="3.44" height="13"/>
	</g>
	<g>
		<rect x="1140.62" y="582.1" fill="#40403F" width="3.44" height="18.89"/>
		
			<rect x="1140.62" y="581.99" transform="matrix(6.123234e-17 -1 1 6.123234e-17 553.8573 1730.8268)" fill="#40403F" width="3.44" height="13"/>
	</g>
	<g>
		<rect x="1187.29" y="582.1" fill="#40403F" width="3.44" height="18.89"/>
		
			<rect x="1187.29" y="581.99" transform="matrix(6.123234e-17 -1 1 6.123234e-17 600.5303 1777.4999)" fill="#40403F" width="3.44" height="13"/>
	</g>
	<g>
		<rect x="1233.97" y="582.1" fill="#40403F" width="3.44" height="18.89"/>
		
			<rect x="1233.97" y="581.99" transform="matrix(6.123234e-17 -1 1 6.123234e-17 647.2034 1824.173)" fill="#40403F" width="3.44" height="13"/>
	</g>
	<g>
		<rect x="1280.64" y="582.1" fill="#40403F" width="3.44" height="18.89"/>
		
			<rect x="1280.64" y="581.99" transform="matrix(6.123234e-17 -1 1 6.123234e-17 693.8765 1870.8461)" fill="#40403F" width="3.44" height="13"/>
	</g>
	<g>
		<rect x="1327.31" y="582.1" fill="#40403F" width="3.44" height="18.89"/>
		
			<rect x="1327.31" y="581.99" transform="matrix(6.123234e-17 -1 1 6.123234e-17 740.5496 1917.519)" fill="#40403F" width="3.44" height="13"/>
	</g>
	<g>
		<rect x="1373.99" y="582.1" fill="#40403F" width="3.44" height="18.89"/>
		
			<rect x="1373.99" y="581.99" transform="matrix(6.123234e-17 -1 1 6.123234e-17 787.2226 1964.1921)" fill="#40403F" width="3.44" height="13"/>
	</g>
	<g>
		<rect x="1420.66" y="582.1" fill="#40403F" width="3.44" height="18.89"/>
		
			<rect x="1420.66" y="581.99" transform="matrix(6.123234e-17 -1 1 6.123234e-17 833.8957 2010.8652)" fill="#40403F" width="3.44" height="13"/>
	</g>
	<g>
		<rect x="1164" y="531.13" fill="#40403F" width="3.44" height="18.89"/>
		
			<rect x="1164" y="531.02" transform="matrix(6.123234e-17 -1 1 6.123234e-17 628.2027 1703.2374)" fill="#40403F" width="3.44" height="13"/>
	</g>
	<g>
		<rect x="1206.77" y="531.13" fill="#40403F" width="3.44" height="18.89"/>
		
			<rect x="1206.77" y="531.02" transform="matrix(6.123234e-17 -1 1 6.123234e-17 670.9794 1746.0142)" fill="#40403F" width="3.44" height="13"/>
	</g>
	<g>
		<rect x="1249.55" y="531.13" fill="#40403F" width="3.44" height="18.89"/>
		
			<rect x="1249.55" y="531.02" transform="matrix(6.123234e-17 -1 1 6.123234e-17 713.7561 1788.7909)" fill="#40403F" width="3.44" height="13"/>
	</g>
	<g>
		<rect x="1292.33" y="531.13" fill="#40403F" width="3.44" height="18.89"/>
		
			<rect x="1292.33" y="531.02" transform="matrix(6.123234e-17 -1 1 6.123234e-17 756.5328 1831.5676)" fill="#40403F" width="3.44" height="13"/>
	</g>
	<g>
		<rect x="1335.1" y="531.13" fill="#40403F" width="3.44" height="18.89"/>
		
			<rect x="1335.1" y="531.02" transform="matrix(6.123234e-17 -1 1 6.123234e-17 799.3096 1874.3444)" fill="#40403F" width="3.44" height="13"/>
	</g>
	<g>
		<rect x="1377.88" y="531.13" fill="#40403F" width="3.44" height="18.89"/>
		
			<rect x="1377.88" y="531.02" transform="matrix(6.123234e-17 -1 1 6.123234e-17 842.0863 1917.1211)" fill="#40403F" width="3.44" height="13"/>
	</g>
	<g>
		<rect x="1420.66" y="531.13" fill="#40403F" width="3.44" height="18.89"/>
		
			<rect x="1420.66" y="531.02" transform="matrix(6.123234e-17 -1 1 6.123234e-17 884.863 1959.8978)" fill="#40403F" width="3.44" height="13"/>
	</g>
	<g>
		<rect x="1187.61" y="480.16" fill="#40403F" width="3.44" height="18.89"/>
		
			<rect x="1187.61" y="480.05" transform="matrix(6.123234e-17 -1 1 6.123234e-17 702.7813 1675.8812)" fill="#40403F" width="3.44" height="13"/>
	</g>
	<g>
		<rect x="1234.22" y="480.16" fill="#40403F" width="3.44" height="18.89"/>
		
			<rect x="1234.22" y="480.05" transform="matrix(6.123234e-17 -1 1 6.123234e-17 749.3911 1722.4911)" fill="#40403F" width="3.44" height="13"/>
	</g>
	<g>
		<rect x="1280.83" y="480.16" fill="#40403F" width="3.44" height="18.89"/>
		
			<rect x="1280.83" y="480.05" transform="matrix(6.123234e-17 -1 1 6.123234e-17 796.0009 1769.101)" fill="#40403F" width="3.44" height="13"/>
	</g>
	<g>
		<rect x="1327.44" y="480.16" fill="#40403F" width="3.44" height="18.89"/>
		
			<rect x="1327.44" y="480.05" transform="matrix(6.123234e-17 -1 1 6.123234e-17 842.6108 1815.7108)" fill="#40403F" width="3.44" height="13"/>
	</g>
	<g>
		<rect x="1374.05" y="480.16" fill="#40403F" width="3.44" height="18.89"/>
		
			<rect x="1374.05" y="480.05" transform="matrix(6.123234e-17 -1 1 6.123234e-17 889.2206 1862.3206)" fill="#40403F" width="3.44" height="13"/>
	</g>
	<g>
		<rect x="1420.66" y="480.16" fill="#40403F" width="3.44" height="18.89"/>
		
			<rect x="1420.66" y="480.05" transform="matrix(6.123234e-17 -1 1 6.123234e-17 935.8304 1908.9304)" fill="#40403F" width="3.44" height="13"/>
	</g>
	<g>
		<rect x="1211.3" y="429.19" fill="#40403F" width="3.44" height="18.89"/>
		
			<rect x="1211.3" y="429.08" transform="matrix(6.123234e-17 -1 1 6.123234e-17 777.4403 1648.6055)" fill="#40403F" width="3.44" height="13"/>
	</g>
	<g>
		<rect x="1253.17" y="429.19" fill="#40403F" width="3.44" height="18.89"/>
		
			<rect x="1253.17" y="429.08" transform="matrix(6.123234e-17 -1 1 6.123234e-17 819.3118 1690.4771)" fill="#40403F" width="3.44" height="13"/>
	</g>
	<g>
		<rect x="1295.04" y="429.19" fill="#40403F" width="3.44" height="18.89"/>
		
			<rect x="1295.04" y="429.08" transform="matrix(6.123234e-17 -1 1 6.123234e-17 861.1833 1732.3485)" fill="#40403F" width="3.44" height="13"/>
	</g>
	<g>
		<rect x="1336.92" y="429.19" fill="#40403F" width="3.44" height="18.89"/>
		
			<rect x="1336.92" y="429.08" transform="matrix(6.123234e-17 -1 1 6.123234e-17 903.0548 1774.2201)" fill="#40403F" width="3.44" height="13"/>
	</g>
	<g>
		<rect x="1378.79" y="429.19" fill="#40403F" width="3.44" height="18.89"/>
		
			<rect x="1378.79" y="429.08" transform="matrix(6.123234e-17 -1 1 6.123234e-17 944.9263 1816.0916)" fill="#40403F" width="3.44" height="13"/>
	</g>
	<g>
		<rect x="1420.66" y="429.19" fill="#40403F" width="3.44" height="18.89"/>
		
			<rect x="1420.66" y="429.08" transform="matrix(6.123234e-17 -1 1 6.123234e-17 986.7979 1857.963)" fill="#40403F" width="3.44" height="13"/>
	</g>
	<g>
		<rect x="1234.93" y="378.23" fill="#40403F" width="3.44" height="18.89"/>
		
			<rect x="1234.93" y="378.12" transform="matrix(6.123234e-17 -1 1 6.123234e-17 852.0402 1621.2706)" fill="#40403F" width="3.44" height="13"/>
	</g>
	<g>
		<rect x="1281.36" y="378.23" fill="#40403F" width="3.44" height="18.89"/>
		
			<rect x="1281.36" y="378.12" transform="matrix(6.123234e-17 -1 1 6.123234e-17 898.4715 1667.7019)" fill="#40403F" width="3.44" height="13"/>
	</g>
	<g>
		<rect x="1327.8" y="378.23" fill="#40403F" width="3.44" height="18.89"/>
		
			<rect x="1327.8" y="378.12" transform="matrix(6.123234e-17 -1 1 6.123234e-17 944.9027 1714.1332)" fill="#40403F" width="3.44" height="13"/>
	</g>
	<g>
		<rect x="1374.23" y="378.23" fill="#40403F" width="3.44" height="18.89"/>
		
			<rect x="1374.23" y="378.12" transform="matrix(6.123234e-17 -1 1 6.123234e-17 991.334 1760.5645)" fill="#40403F" width="3.44" height="13"/>
	</g>
	<g>
		<rect x="1420.66" y="378.23" fill="#40403F" width="3.44" height="18.89"/>
		
			<rect x="1420.66" y="378.12" transform="matrix(6.123234e-17 -1 1 6.123234e-17 1037.7653 1806.9956)" fill="#40403F" width="3.44" height="13"/>
	</g>
	<g>
		<rect x="1258.63" y="327.26" fill="#40403F" width="3.44" height="18.89"/>
		
			<rect x="1258.63" y="327.15" transform="matrix(6.123234e-17 -1 1 6.123234e-17 926.7 1593.9957)" fill="#40403F" width="3.44" height="13"/>
	</g>
	<g>
		<rect x="1299.13" y="327.26" fill="#40403F" width="3.44" height="18.89"/>
		
			<rect x="1299.13" y="327.15" transform="matrix(6.123234e-17 -1 1 6.123234e-17 967.2082 1634.5038)" fill="#40403F" width="3.44" height="13"/>
	</g>
	<g>
		<rect x="1339.64" y="327.26" fill="#40403F" width="3.44" height="18.89"/>
		
			<rect x="1339.64" y="327.15" transform="matrix(6.123234e-17 -1 1 6.123234e-17 1007.7163 1675.012)" fill="#40403F" width="3.44" height="13"/>
	</g>
	<g>
		<rect x="1380.15" y="327.26" fill="#40403F" width="3.44" height="18.89"/>
		
			<rect x="1380.15" y="327.15" transform="matrix(6.123234e-17 -1 1 6.123234e-17 1048.2245 1715.5201)" fill="#40403F" width="3.44" height="13"/>
	</g>
	<g>
		<rect x="1420.66" y="327.26" fill="#40403F" width="3.44" height="18.89"/>
		
			<rect x="1420.66" y="327.15" transform="matrix(6.123234e-17 -1 1 6.123234e-17 1088.7327 1756.0283)" fill="#40403F" width="3.44" height="13"/>
	</g>
	<g>
		<rect x="1282.24" y="276.29" fill="#40403F" width="3.44" height="18.89"/>
		
			<rect x="1282.24" y="276.18" transform="matrix(6.123234e-17 -1 1 6.123234e-17 1001.2851 1566.646)" fill="#40403F" width="3.44" height="13"/>
	</g>
	<g>
		<rect x="1328.38" y="276.29" fill="#40403F" width="3.44" height="18.89"/>
		
			<rect x="1328.38" y="276.18" transform="matrix(6.123234e-17 -1 1 6.123234e-17 1047.4233 1612.7843)" fill="#40403F" width="3.44" height="13"/>
	</g>
	<g>
		<rect x="1374.52" y="276.29" fill="#40403F" width="3.44" height="18.89"/>
		
			<rect x="1374.52" y="276.18" transform="matrix(6.123234e-17 -1 1 6.123234e-17 1093.5616 1658.9226)" fill="#40403F" width="3.44" height="13"/>
	</g>
	<g>
		<rect x="1420.66" y="276.29" fill="#40403F" width="3.44" height="18.89"/>
		
			<rect x="1420.66" y="276.18" transform="matrix(6.123234e-17 -1 1 6.123234e-17 1139.7001 1705.0609)" fill="#40403F" width="3.44" height="13"/>
	</g>
</g>
<g>
	<circle fill="#FFAC00" cx="1539.99" cy="316.1" r="13.48"/>
	<circle fill="#999999" cx="1539.99" cy="377.19" r="13.48"/>
	<circle fill="#999999" cx="1539.99" cy="438.28" r="13.48"/>
	<circle fill="#999999" cx="1539.99" cy="499.37" r="13.48"/>
	<circle fill="#999999" cx="1539.99" cy="560.46" r="13.48"/>
	<circle fill="#999999" cx="1539.99" cy="621.54" r="13.48"/>
	<circle fill="#999999" cx="1539.99" cy="682.63" r="13.48"/>
	<circle fill="#999999" cx="1539.99" cy="743.72" r="13.48"/>
	<circle fill="#999999" cx="1539.99" cy="804.81" r="13.48"/>
</g>
</svg>
