<?xml version="1.0" encoding="UTF-8" standalone="no"?>
<!-- Generator: Adobe Illustrator 23.0.0, SVG Export Plug-In . SVG Version: 6.00 Build 0)  -->

<svg
   xmlns:dc="http://purl.org/dc/elements/1.1/"
   xmlns:cc="http://creativecommons.org/ns#"
   xmlns:rdf="http://www.w3.org/1999/02/22-rdf-syntax-ns#"
   xmlns:svg="http://www.w3.org/2000/svg"
   xmlns="http://www.w3.org/2000/svg"
   xmlns:sodipodi="http://sodipodi.sourceforge.net/DTD/sodipodi-0.dtd"
   xmlns:inkscape="http://www.inkscape.org/namespaces/inkscape"
   version="1.0"
   id="Layer_1"
   x="0px"
   y="0px"
   viewBox="0 0 24.93 23.799999"
   enable-background="new 0 0 100 100"
   xml:space="preserve"
   sodipodi:docname="logo_instagram.svg"
   width="24.93"
   height="23.799999"
   inkscape:version="0.92.3 (2405546, 2018-03-11)"><metadata
   id="metadata1778"><rdf:RDF><cc:Work
       rdf:about=""><dc:format>image/svg+xml</dc:format><dc:type
         rdf:resource="http://purl.org/dc/dcmitype/StillImage" /><dc:title></dc:title></cc:Work></rdf:RDF></metadata><defs
   id="defs1776" /><sodipodi:namedview
   pagecolor="#ffffff"
   bordercolor="#666666"
   borderopacity="1"
   objecttolerance="10"
   gridtolerance="10"
   guidetolerance="10"
   inkscape:pageopacity="0"
   inkscape:pageshadow="2"
   inkscape:window-width="1533"
   inkscape:window-height="845"
   id="namedview1774"
   showgrid="false"
   fit-margin-top="0"
   fit-margin-left="0"
   fit-margin-right="0"
   fit-margin-bottom="0"
   inkscape:zoom="6.58"
   inkscape:cx="12.46"
   inkscape:cy="11.9"
   inkscape:window-x="67"
   inkscape:window-y="27"
   inkscape:window-maximized="1"
   inkscape:current-layer="Layer_1" />
<g
   id="g1771"
   transform="translate(-37.54,-38.1)">
	<g
   id="g1761">
		<path
   d="m 54.78,61.9 h -9.55 c -4.24,0 -7.69,-3.45 -7.69,-7.69 v -8.42 c 0,-4.24 3.45,-7.69 7.69,-7.69 h 9.55 c 4.24,0 7.69,3.45 7.69,7.69 v 8.42 c 0,4.24 -3.45,7.69 -7.69,7.69 z M 45.22,39.81 c -3.3,0 -5.98,2.68 -5.98,5.98 v 8.42 c 0,3.3 2.68,5.98 5.98,5.98 h 9.55 c 3.3,0 5.98,-2.68 5.98,-5.98 v -8.42 c 0,-3.3 -2.68,-5.98 -5.98,-5.98 z"
   id="path1759"
   inkscape:connector-curvature="0"
   style="fill:#666666" />
	</g>
	<g
   id="g1765">
		<path
   d="m 50,56.85 c -3.77,0 -6.85,-3.07 -6.85,-6.85 0,-3.77 3.07,-6.85 6.85,-6.85 3.77,0 6.85,3.07 6.85,6.85 0,3.77 -3.08,6.85 -6.85,6.85 z m 0,-11.99 c -2.83,0 -5.14,2.3 -5.14,5.14 0,2.83 2.3,5.14 5.14,5.14 2.83,0 5.14,-2.3 5.14,-5.14 0,-2.83 -2.31,-5.14 -5.14,-5.14 z"
   id="path1763"
   inkscape:connector-curvature="0"
   style="fill:#666666" />
	</g>
	<g
   id="g1769">
		<path
   d="m 58.16,43.37 c 0,0.78 -0.64,1.42 -1.42,1.42 -0.78,0 -1.42,-0.64 -1.42,-1.42 0,-0.78 0.64,-1.42 1.42,-1.42 0.79,-0.01 1.42,0.63 1.42,1.42 z"
   id="path1767"
   inkscape:connector-curvature="0"
   style="fill:#666666" />
	</g>
</g>
</svg>